<?xml version="1.0" encoding="UTF-8" standalone="no" ?>
<!DOCTYPE svg PUBLIC "-//W3C//DTD SVG 1.1//EN" "http://www.w3.org/Graphics/SVG/1.1/DTD/svg11.dtd">
<svg xmlns="http://www.w3.org/2000/svg" xmlns:xlink="http://www.w3.org/1999/xlink" version="1.1" width="500" height="500" viewBox="0 0 500 500" xml:space="preserve">
<desc>Created with Fabric.js 5.3.0</desc>
<defs>
</defs>
<g transform="matrix(1 0 0 1 223.2633888889 108.0295138889)" id="cPykH9IwPMPDkr_V0kD59"  >
<path style="stroke: rgb(0,0,0); stroke-width: 1; stroke-dasharray: none; stroke-linecap: round; stroke-dashoffset: 0; stroke-linejoin: round; stroke-miterlimit: 10; fill: none; fill-rule: nonzero; opacity: 1;" vector-effect="non-scaling-stroke"  transform=" translate(-223.2633888889, -108.0295138889)" d="M 174.99900000000002 107.63788888888888 Q 175.00000000000003 107.63888888888889 176.3888888888889 107.63888888888889 Q 177.7777777777778 107.63888888888889 180.55555555555557 108.33333333333333 Q 183.33333333333334 109.02777777777777 185.41666666666669 109.02777777777777 Q 187.50000000000003 109.02777777777777 188.8888888888889 109.02777777777777 Q 190.2777777777778 109.02777777777777 193.05555555555557 109.72222222222223 Q 195.83333333333334 110.41666666666667 197.56944444444446 110.41666666666667 Q 199.30555555555557 110.41666666666667 202.08333333333334 110.41666666666667 Q 204.86111111111111 110.41666666666667 206.94444444444446 110.41666666666667 Q 209.0277777777778 110.41666666666667 210.06944444444446 110.41666666666667 Q 211.11111111111111 110.41666666666667 211.80555555555557 110.41666666666667 Q 212.50000000000003 110.41666666666667 212.84722222222226 110.06944444444444 Q 213.19444444444449 109.72222222222221 214.23611111111114 109.72222222222221 Q 215.2777777777778 109.72222222222221 216.31944444444446 109.72222222222221 Q 217.36111111111111 109.72222222222221 218.75 109.72222222222221 Q 220.13888888888889 109.72222222222221 221.18055555555557 109.375 Q 222.22222222222226 109.02777777777777 222.91666666666669 109.02777777777777 Q 223.61111111111111 109.02777777777777 224.30555555555557 109.02777777777777 Q 225.00000000000003 109.02777777777777 225.69444444444446 109.02777777777777 Q 226.38888888888889 109.02777777777777 227.08333333333334 109.02777777777777 Q 227.7777777777778 109.02777777777777 229.5138888888889 109.02777777777777 Q 231.25000000000003 109.02777777777777 231.94444444444446 108.68055555555554 Q 232.63888888888889 108.33333333333333 233.68055555555557 108.33333333333333 Q 234.72222222222226 108.33333333333333 235.7638888888889 108.33333333333333 Q 236.80555555555557 108.33333333333333 237.50000000000003 108.33333333333333 Q 238.19444444444449 108.33333333333333 239.58333333333337 108.33333333333333 Q 240.97222222222226 108.33333333333333 242.0138888888889 108.33333333333333 Q 243.05555555555557 108.33333333333333 243.75000000000003 108.33333333333333 Q 244.44444444444449 108.33333333333333 244.79166666666669 108.33333333333333 Q 245.13888888888889 108.33333333333333 245.48611111111111 108.33333333333333 Q 245.83333333333334 108.33333333333333 246.18055555555557 108.33333333333333 Q 246.5277777777778 108.33333333333333 246.87500000000003 107.98611111111111 Q 247.22222222222226 107.63888888888889 247.91666666666669 107.63888888888889 Q 248.61111111111111 107.63888888888889 249.6527777777778 107.63888888888889 Q 250.69444444444449 107.63888888888889 251.3888888888889 107.29166666666666 Q 252.08333333333334 106.94444444444444 252.7777777777778 106.94444444444444 Q 253.47222222222226 106.94444444444444 253.81944444444449 106.94444444444444 Q 254.1666666666667 106.94444444444444 255.5555555555556 106.94444444444444 Q 256.94444444444446 106.94444444444444 257.2916666666667 106.94444444444444 Q 257.6388888888889 106.94444444444444 258.33333333333337 106.59722222222223 Q 259.0277777777778 106.25 259.7222222222223 106.25 Q 260.41666666666674 106.25 261.45833333333337 106.25 Q 262.5 106.25 263.8888888888889 106.25 Q 265.2777777777778 106.25 265.9722222222223 106.25 Q 266.66666666666674 106.25 267.36111111111114 106.25 Q 268.05555555555554 106.25 269.09722222222223 106.25 Q 270.1388888888889 106.25 270.48611111111114 106.25 Q 270.83333333333337 106.25 271.1805555555556 106.25 Q 271.5277777777778 106.25 271.5277777777778 105.90277777777777 Q 271.5277777777778 105.55555555555556 271.1805555555556 105.90277777777777 L 270.8323333333334 106.251" stroke-linecap="round" />
</g>
<g transform="matrix(1 0 0 1 228.125 141.9699861111)" id="5fsWR283LJ4v9hjtXXlar"  >
<path style="stroke: rgb(0,0,0); stroke-width: 1; stroke-dasharray: none; stroke-linecap: round; stroke-dashoffset: 0; stroke-linejoin: round; stroke-miterlimit: 10; fill: none; fill-rule: nonzero; opacity: 1;" vector-effect="non-scaling-stroke"  transform=" translate(-228.125, -141.9699861111)" d="M 227.7787777777778 109.02677777777777 Q 227.7777777777778 109.02777777777777 227.7777777777778 109.375 Q 227.7777777777778 109.72222222222221 227.43055555555557 111.11111111111111 Q 227.08333333333334 112.5 227.08333333333334 112.84722222222223 Q 227.08333333333334 113.19444444444444 227.08333333333334 113.88888888888889 Q 227.08333333333334 114.58333333333334 227.08333333333334 114.93055555555556 Q 227.08333333333334 115.27777777777777 227.08333333333334 115.97222222222221 Q 227.08333333333334 116.66666666666666 227.08333333333334 117.01388888888889 Q 227.08333333333334 117.36111111111111 227.08333333333334 118.05555555555556 Q 227.08333333333334 118.75 227.08333333333334 119.09722222222221 Q 227.08333333333334 119.44444444444443 227.08333333333334 119.79166666666666 Q 227.08333333333334 120.13888888888889 227.08333333333334 120.48611111111111 Q 227.08333333333334 120.83333333333334 227.08333333333334 121.18055555555556 Q 227.08333333333334 121.52777777777777 227.08333333333334 121.875 Q 227.08333333333334 122.22222222222223 227.08333333333334 122.56944444444444 Q 227.08333333333334 122.91666666666666 227.08333333333334 123.26388888888889 Q 227.08333333333334 123.61111111111111 227.08333333333334 124.30555555555556 Q 227.08333333333334 125 227.08333333333334 125.69444444444444 Q 227.08333333333334 126.38888888888889 227.08333333333334 127.43055555555556 Q 227.08333333333334 128.47222222222223 227.08333333333334 128.81944444444446 Q 227.08333333333334 129.16666666666666 227.08333333333334 129.51388888888889 Q 227.08333333333334 129.86111111111111 227.08333333333334 130.20833333333331 Q 227.08333333333334 130.55555555555554 227.08333333333334 130.90277777777777 Q 227.08333333333334 131.25 227.08333333333334 131.94444444444446 Q 227.08333333333334 132.63888888888889 227.08333333333334 132.98611111111111 Q 227.08333333333334 133.33333333333334 227.08333333333334 133.68055555555554 Q 227.08333333333334 134.02777777777777 227.08333333333334 134.375 Q 227.08333333333334 134.72222222222223 226.73611111111111 134.375 Q 226.38888888888889 134.02777777777777 226.38888888888889 133.68055555555554 Q 226.38888888888889 133.33333333333334 226.04166666666669 133.33333333333334 Q 225.69444444444449 133.33333333333334 225.34722222222226 132.98611111111111 Q 225.00000000000003 132.63888888888889 224.30555555555557 132.29166666666666 Q 223.61111111111111 131.94444444444443 223.2638888888889 131.94444444444443 Q 222.9166666666667 131.94444444444443 222.56944444444449 131.94444444444443 Q 222.22222222222226 131.94444444444443 221.87500000000003 131.94444444444443 Q 221.5277777777778 131.94444444444443 221.18055555555557 131.94444444444443 Q 220.83333333333334 131.94444444444443 220.48611111111111 131.94444444444443 Q 220.13888888888889 131.94444444444443 219.09722222222223 132.29166666666666 Q 218.05555555555557 132.63888888888889 217.0138888888889 132.98611111111111 Q 215.97222222222226 133.33333333333334 214.58333333333337 133.68055555555554 Q 213.19444444444449 134.02777777777777 212.84722222222226 134.02777777777777 Q 212.50000000000003 134.02777777777777 211.80555555555557 134.375 Q 211.11111111111111 134.72222222222223 210.41666666666669 135.06944444444446 Q 209.72222222222226 135.41666666666666 209.72222222222226 135.76388888888889 Q 209.72222222222226 136.11111111111111 209.0277777777778 136.11111111111111 Q 208.33333333333334 136.11111111111111 208.33333333333334 136.45833333333331 Q 208.33333333333334 136.80555555555554 207.98611111111111 136.80555555555554 Q 207.63888888888889 136.80555555555554 207.29166666666669 136.80555555555554 Q 206.94444444444449 136.80555555555554 206.94444444444449 137.15277777777777 Q 206.94444444444449 137.5 206.94444444444449 137.84722222222223 Q 206.94444444444449 138.19444444444443 206.94444444444449 138.54166666666666 Q 206.94444444444449 138.88888888888889 206.59722222222226 138.88888888888889 Q 206.25000000000003 138.88888888888889 206.25000000000003 139.23611111111111 Q 206.25000000000003 139.58333333333334 206.25000000000003 140.27777777777777 Q 206.25000000000003 140.97222222222223 206.25000000000003 141.31944444444446 Q 206.25000000000003 141.66666666666666 206.25000000000003 142.01388888888889 Q 206.25000000000003 142.36111111111111 206.25000000000003 142.70833333333331 Q 206.25000000000003 143.05555555555554 206.59722222222226 143.40277777777777 Q 206.94444444444449 143.75 206.94444444444449 144.09722222222223 Q 206.94444444444449 144.44444444444443 206.94444444444449 144.79166666666666 Q 206.94444444444449 145.13888888888889 206.94444444444449 145.83333333333331 Q 206.94444444444449 146.52777777777777 206.94444444444449 146.875 Q 206.94444444444449 147.22222222222223 206.94444444444449 147.56944444444446 Q 206.94444444444449 147.91666666666666 206.94444444444449 148.26388888888889 Q 206.94444444444449 148.61111111111111 206.94444444444449 148.95833333333331 Q 206.94444444444449 149.30555555555554 206.94444444444449 149.65277777777777 Q 206.94444444444449 150 207.29166666666669 150 Q 207.63888888888889 150 207.63888888888889 150.34722222222223 Q 207.63888888888889 150.69444444444443 207.98611111111111 150.69444444444443 Q 208.33333333333334 150.69444444444443 208.68055555555557 150.69444444444443 Q 209.0277777777778 150.69444444444443 209.37500000000003 151.38888888888889 Q 209.72222222222226 152.08333333333334 209.72222222222226 152.43055555555554 Q 209.72222222222226 152.77777777777777 210.06944444444449 152.77777777777777 Q 210.4166666666667 152.77777777777777 211.45833333333337 152.77777777777777 Q 212.50000000000003 152.77777777777777 213.54166666666669 152.77777777777777 Q 214.58333333333334 152.77777777777777 215.97222222222223 152.77777777777777 Q 217.36111111111111 152.77777777777777 218.05555555555557 152.77777777777777 Q 218.75000000000003 152.77777777777777 219.09722222222226 152.77777777777777 Q 219.44444444444449 152.77777777777777 219.79166666666669 152.77777777777777 Q 220.13888888888889 152.77777777777777 220.48611111111111 152.77777777777777 Q 220.83333333333334 152.77777777777777 221.18055555555557 152.77777777777777 Q 221.5277777777778 152.77777777777777 221.87500000000003 152.77777777777777 Q 222.22222222222226 152.77777777777777 222.56944444444449 152.77777777777777 Q 222.9166666666667 152.77777777777777 223.2638888888889 152.77777777777777 Q 223.61111111111111 152.77777777777777 223.95833333333334 152.77777777777777 Q 224.30555555555557 152.77777777777777 224.6527777777778 152.77777777777777 Q 225.00000000000003 152.77777777777777 225.34722222222226 152.77777777777777 Q 225.69444444444449 152.77777777777777 226.04166666666669 152.77777777777777 Q 226.38888888888889 152.77777777777777 226.73611111111111 152.77777777777777 Q 227.08333333333334 152.77777777777777 227.7777777777778 152.77777777777777 Q 228.47222222222226 152.77777777777777 228.81944444444449 152.77777777777777 Q 229.1666666666667 152.77777777777777 229.5138888888889 152.77777777777777 Q 229.86111111111111 152.77777777777777 230.55555555555557 152.77777777777777 Q 231.25000000000003 152.77777777777777 231.94444444444446 152.77777777777777 Q 232.63888888888889 152.77777777777777 233.33333333333334 152.77777777777777 Q 234.0277777777778 152.77777777777777 234.37500000000003 152.77777777777777 Q 234.72222222222226 152.77777777777777 235.06944444444449 152.77777777777777 Q 235.4166666666667 152.77777777777777 235.7638888888889 152.77777777777777 Q 236.11111111111111 152.77777777777777 236.45833333333334 152.77777777777777 Q 236.80555555555557 152.77777777777777 237.1527777777778 152.77777777777777 Q 237.50000000000003 152.77777777777777 237.84722222222226 152.77777777777777 Q 238.19444444444449 152.77777777777777 238.8888888888889 152.77777777777777 Q 239.58333333333334 152.77777777777777 239.93055555555557 152.77777777777777 Q 240.2777777777778 152.77777777777777 240.62500000000003 152.77777777777777 Q 240.97222222222226 152.77777777777777 241.31944444444449 152.77777777777777 Q 241.6666666666667 152.77777777777777 242.0138888888889 153.125 Q 242.36111111111111 153.47222222222223 242.70833333333334 153.47222222222223 Q 243.05555555555557 153.47222222222223 243.4027777777778 153.47222222222223 Q 243.75000000000003 153.47222222222223 244.09722222222226 153.47222222222223 Q 244.44444444444449 153.47222222222223 244.79166666666669 153.47222222222223 Q 245.13888888888889 153.47222222222223 245.48611111111111 153.81944444444446 Q 245.83333333333334 154.16666666666666 245.83333333333334 154.51388888888889 Q 245.83333333333334 154.86111111111111 246.18055555555557 154.86111111111111 Q 246.5277777777778 154.86111111111111 246.5277777777778 155.20833333333331 Q 246.5277777777778 155.55555555555554 246.5277777777778 155.90277777777777 Q 246.5277777777778 156.25 246.87500000000003 156.25 Q 247.22222222222226 156.25 247.56944444444449 156.94444444444446 Q 247.9166666666667 157.63888888888889 248.2638888888889 157.98611111111111 Q 248.61111111111111 158.33333333333334 248.61111111111111 158.68055555555554 Q 248.61111111111111 159.02777777777777 248.95833333333334 159.02777777777777 Q 249.30555555555557 159.02777777777777 249.30555555555557 159.375 Q 249.30555555555557 159.72222222222223 249.30555555555557 160.06944444444446 Q 249.30555555555557 160.41666666666666 249.30555555555557 160.76388888888889 Q 249.30555555555557 161.11111111111111 249.6527777777778 161.11111111111111 Q 250.00000000000003 161.11111111111111 250.00000000000003 161.45833333333331 Q 250.00000000000003 161.80555555555554 250.00000000000003 162.15277777777777 Q 250.00000000000003 162.5 250.00000000000003 162.84722222222223 Q 250.00000000000003 163.19444444444443 250.00000000000003 163.88888888888889 Q 250.00000000000003 164.58333333333334 250.00000000000003 165.27777777777777 Q 250.00000000000003 165.97222222222223 250.00000000000003 166.31944444444446 Q 250.00000000000003 166.66666666666666 249.6527777777778 167.01388888888889 Q 249.30555555555557 167.36111111111111 248.95833333333334 167.36111111111111 Q 248.61111111111111 167.36111111111111 248.61111111111111 167.70833333333331 Q 248.61111111111111 168.05555555555554 248.2638888888889 168.40277777777777 Q 247.9166666666667 168.75 247.56944444444449 168.75 Q 247.22222222222226 168.75 247.22222222222226 169.44444444444446 Q 247.22222222222226 170.13888888888889 246.87500000000003 170.13888888888889 Q 246.5277777777778 170.13888888888889 246.18055555555557 170.13888888888889 Q 245.83333333333334 170.13888888888889 245.83333333333334 170.48611111111111 Q 245.83333333333334 170.83333333333334 245.48611111111111 171.18055555555554 Q 245.13888888888889 171.52777777777777 244.79166666666669 171.875 Q 244.44444444444449 172.22222222222223 244.09722222222226 172.56944444444446 Q 243.75000000000003 172.91666666666666 243.4027777777778 173.26388888888889 Q 243.05555555555557 173.61111111111111 243.05555555555557 173.95833333333331 Q 243.05555555555557 174.30555555555554 243.05555555555557 174.65277777777777 Q 243.05555555555557 175 243.05555555555557 174.65277777777777 L 243.05555555555557 174.30455555555554" stroke-linecap="round" />
</g>
<g transform="matrix(1 0 0 1 226.3888888889 177.0130548978)" id="LCM68Uy6DjAj5Olntjqwa"  >
<path style="stroke: rgb(0,0,0); stroke-width: 1; stroke-dasharray: none; stroke-linecap: round; stroke-dashoffset: 0; stroke-linejoin: round; stroke-miterlimit: 10; fill: none; fill-rule: nonzero; opacity: 1;" vector-effect="non-scaling-stroke"  transform=" translate(-226.3888888889, -177.0130548978)" d="M 218.05655555555558 152.77677777777777 Q 218.05555555555557 152.77777777777777 218.05555555555557 153.125 Q 218.05555555555557 153.47222222222223 217.36111111111114 153.81944444444446 Q 216.6666666666667 154.16666666666666 216.31944444444449 154.51388888888889 Q 215.97222222222226 154.86111111111111 215.97222222222226 155.55555555555554 Q 215.97222222222226 156.25 215.62500000000003 156.25 Q 215.2777777777778 156.25 215.2777777777778 156.59722222222223 Q 215.2777777777778 156.94444444444443 214.93055555555557 157.29166666666666 Q 214.58333333333334 157.63888888888889 213.54166666666669 158.33333333333331 Q 212.50000000000003 159.02777777777777 212.50000000000003 159.375 Q 212.50000000000003 159.72222222222223 212.1527777777778 160.41666666666669 Q 211.80555555555557 161.11111111111111 211.80555555555557 161.45833333333331 Q 211.80555555555557 161.80555555555554 211.45833333333334 161.80555555555554 Q 211.11111111111111 161.80555555555554 210.41666666666669 162.5 Q 209.72222222222226 163.19444444444443 209.72222222222226 163.54166666666666 Q 209.72222222222226 163.88888888888889 209.72222222222226 164.23611111111111 Q 209.72222222222226 164.58333333333334 209.72222222222226 164.93055555555554 Q 209.72222222222226 165.27777777777777 209.72222222222226 165.625 Q 209.72222222222226 165.97222222222223 209.72222222222226 166.66666666666669 Q 209.72222222222226 167.36111111111111 209.72222222222226 168.05555555555554 Q 209.72222222222226 168.75 209.72222222222226 169.44444444444446 Q 209.72222222222226 170.13888888888889 209.72222222222226 170.48611111111111 Q 209.72222222222226 170.83333333333334 210.06944444444449 171.18055555555554 Q 210.4166666666667 171.52777777777777 210.7638888888889 171.875 Q 211.11111111111111 172.22222222222223 211.11111111111111 172.56944444444446 Q 211.11111111111111 172.91666666666666 211.11111111111111 173.26388888888889 Q 211.11111111111111 173.61111111111111 211.11111111111111 173.95833333333331 Q 211.11111111111111 174.30555555555554 211.45833333333334 174.30555555555554 Q 211.80555555555557 174.30555555555554 211.80555555555557 174.65277777777777 Q 211.80555555555557 175 212.1527777777778 175.34722222222223 Q 212.50000000000003 175.69444444444443 212.50000000000003 176.38888888888889 Q 212.50000000000003 177.08333333333334 213.19444444444446 177.77777777777777 Q 213.88888888888889 178.47222222222223 214.23611111111111 178.47222222222223 Q 214.58333333333334 178.47222222222223 214.93055555555557 179.16666666666669 Q 215.2777777777778 179.86111111111111 215.62500000000003 180.20833333333331 Q 215.97222222222226 180.55555555555554 216.31944444444449 180.90277777777777 Q 216.6666666666667 181.25 217.36111111111114 181.25 Q 218.05555555555557 181.25 218.05555555555557 181.59722222222223 Q 218.05555555555557 181.94444444444443 218.05555555555557 182.29166666666666 Q 218.05555555555557 182.63888888888889 218.75000000000003 182.63888888888889 Q 219.44444444444449 182.63888888888889 219.79166666666669 182.98611111111111 Q 220.13888888888889 183.33333333333334 220.48611111111111 183.33333333333334 Q 220.83333333333334 183.33333333333334 221.18055555555557 183.68055555555554 Q 221.5277777777778 184.02777777777777 221.87500000000003 184.02777777777777 Q 222.22222222222226 184.02777777777777 222.91666666666669 184.02777777777777 Q 223.61111111111111 184.02777777777777 223.95833333333334 184.02777777777777 Q 224.30555555555557 184.02777777777777 224.6527777777778 184.02777777777777 Q 225.00000000000003 184.02777777777777 225.69444444444446 184.375 Q 226.38888888888889 184.72222222222223 226.73611111111111 184.72222222222223 Q 227.08333333333334 184.72222222222223 227.7777777777778 184.72222222222223 Q 228.47222222222226 184.72222222222223 228.81944444444449 185.06944444444446 Q 229.1666666666667 185.41666666666666 229.5138888888889 185.41666666666666 Q 229.86111111111111 185.41666666666666 230.55555555555557 185.41666666666666 Q 231.25000000000003 185.41666666666666 231.59722222222226 185.76388888888889 Q 231.94444444444449 186.11111111111111 231.94444444444449 186.45833333333331 Q 231.94444444444449 186.80555555555554 232.6388888888889 186.80555555555554 Q 233.33333333333334 186.80555555555554 234.0277777777778 186.80555555555554 Q 234.72222222222226 186.80555555555554 235.06944444444449 187.15277777777777 Q 235.4166666666667 187.5 236.45833333333337 188.19444444444446 Q 237.50000000000003 188.88888888888889 237.84722222222226 188.88888888888889 Q 238.19444444444449 188.88888888888889 238.8888888888889 189.23611111111111 Q 239.58333333333334 189.58333333333334 239.93055555555557 189.58333333333334 Q 240.2777777777778 189.58333333333334 240.2777777777778 189.93055555555554 Q 240.2777777777778 190.27777777777777 240.62500000000003 190.625 Q 240.97222222222226 190.97222222222223 241.31944444444449 191.31944444444446 Q 241.6666666666667 191.66666666666666 242.0138888888889 191.66666666666666 Q 242.36111111111111 191.66666666666666 242.36111111111111 192.01388888888889 Q 242.36111111111111 192.36111111111111 242.70833333333334 192.36111111111111 Q 243.05555555555557 192.36111111111111 243.05555555555557 192.70833333333331 Q 243.05555555555557 193.05555555555554 243.05555555555557 193.40277777777777 Q 243.05555555555557 193.75 243.05555555555557 194.09722222222223 Q 243.05555555555557 194.44444444444443 243.05555555555557 194.79166666666666 Q 243.05555555555557 195.13888888888889 243.05555555555557 195.48611111111111 Q 243.05555555555557 195.83333333333334 243.05555555555557 196.18055555555554 Q 243.05555555555557 196.52777777777777 243.05555555555557 196.875 Q 243.05555555555557 197.22222222222223 243.05555555555557 197.56944444444446 Q 243.05555555555557 197.91666666666666 243.05555555555557 198.26388888888889 Q 243.05555555555557 198.61111111111111 243.05555555555557 198.95833333333331 Q 243.05555555555557 199.30555555555554 243.05555555555557 199.65277777777777 Q 243.05555555555557 200 243.05555555555557 200.34722222222223 Q 243.05555555555557 200.69444444444443 243.05555555555557 201.04166666666666 Q 243.05555555555557 201.38888888888889 243.05555555555557 200.34722222222223 L 243.05555555555557 199.30455555555554" stroke-linecap="round" />
</g>
<g transform="matrix(1 0 0 1 107.2482638889 150.3477222222)" id="mMjslCpRB1rhgD3VkadEH"  >
<path style="stroke: rgb(0,0,0); stroke-width: 1; stroke-dasharray: none; stroke-linecap: round; stroke-dashoffset: 0; stroke-linejoin: round; stroke-miterlimit: 10; fill: none; fill-rule: nonzero; opacity: 1;" vector-effect="non-scaling-stroke"  transform=" translate(-107.2482638889, -150.3477222222)" d="M 86.11011111111114 111.80555555555556 Q 86.11111111111114 111.80555555555556 86.45833333333336 111.80555555555556 Q 86.80555555555557 111.80555555555556 87.1527777777778 111.80555555555556 Q 87.50000000000003 111.80555555555556 88.5416666666667 111.80555555555556 Q 89.58333333333337 111.80555555555556 89.93055555555559 111.80555555555556 Q 90.2777777777778 111.80555555555556 90.97222222222224 111.80555555555556 Q 91.66666666666669 111.80555555555556 92.36111111111113 112.15277777777777 Q 93.05555555555557 112.5 93.4027777777778 112.5 Q 93.75000000000003 112.5 94.09722222222224 112.5 Q 94.44444444444446 112.5 95.13888888888891 112.84722222222223 Q 95.83333333333337 113.19444444444444 95.83333333333337 113.54166666666666 Q 95.83333333333337 113.88888888888889 96.18055555555559 113.88888888888889 Q 96.5277777777778 113.88888888888889 96.87500000000003 113.88888888888889 Q 97.22222222222226 113.88888888888889 97.9166666666667 113.88888888888889 Q 98.61111111111114 113.88888888888889 99.30555555555559 114.23611111111111 Q 100.00000000000003 114.58333333333334 100.69444444444447 114.93055555555556 Q 101.38888888888891 115.27777777777777 101.73611111111114 115.625 Q 102.08333333333337 115.97222222222223 102.43055555555559 116.31944444444444 Q 102.7777777777778 116.66666666666666 103.12500000000003 116.66666666666666 Q 103.47222222222226 116.66666666666666 103.81944444444447 117.01388888888889 Q 104.16666666666669 117.36111111111111 104.51388888888891 117.70833333333333 Q 104.86111111111114 118.05555555555554 105.20833333333336 118.05555555555554 Q 105.55555555555557 118.05555555555554 105.9027777777778 118.74999999999999 Q 106.25000000000003 119.44444444444443 106.59722222222224 119.79166666666666 Q 106.94444444444446 120.13888888888889 107.63888888888891 120.13888888888889 Q 108.33333333333337 120.13888888888889 108.33333333333337 120.48611111111111 Q 108.33333333333337 120.83333333333334 109.02777777777781 121.18055555555556 Q 109.72222222222226 121.52777777777777 109.72222222222226 121.875 Q 109.72222222222226 122.22222222222223 110.06944444444447 122.56944444444444 Q 110.41666666666669 122.91666666666666 110.76388888888891 122.91666666666666 Q 111.11111111111114 122.91666666666666 111.11111111111114 123.26388888888889 Q 111.11111111111114 123.61111111111111 111.11111111111114 124.30555555555556 Q 111.11111111111114 125 111.45833333333336 125.34722222222221 Q 111.80555555555557 125.69444444444443 111.80555555555557 126.04166666666666 Q 111.80555555555557 126.38888888888889 111.80555555555557 127.08333333333333 Q 111.80555555555557 127.77777777777777 112.1527777777778 128.47222222222223 Q 112.50000000000003 129.16666666666666 112.50000000000003 129.8611111111111 Q 112.50000000000003 130.55555555555554 112.50000000000003 130.90277777777777 Q 112.50000000000003 131.25 112.50000000000003 131.59722222222223 Q 112.50000000000003 131.94444444444443 112.50000000000003 132.29166666666666 Q 112.50000000000003 132.63888888888889 112.50000000000003 132.98611111111111 Q 112.50000000000003 133.33333333333334 112.50000000000003 133.68055555555554 Q 112.50000000000003 134.02777777777777 112.50000000000003 134.375 Q 112.50000000000003 134.72222222222223 112.50000000000003 135.06944444444446 Q 112.50000000000003 135.41666666666666 112.50000000000003 136.1111111111111 Q 112.50000000000003 136.80555555555554 112.50000000000003 137.5 Q 112.50000000000003 138.19444444444443 112.50000000000003 138.88888888888889 Q 112.50000000000003 139.58333333333334 112.50000000000003 139.93055555555554 Q 112.50000000000003 140.27777777777777 112.1527777777778 140.97222222222223 Q 111.80555555555557 141.66666666666666 111.80555555555557 142.01388888888889 Q 111.80555555555557 142.36111111111111 111.80555555555557 142.70833333333331 Q 111.80555555555557 143.05555555555554 111.45833333333336 143.40277777777777 Q 111.11111111111114 143.75 111.11111111111114 144.09722222222223 Q 111.11111111111114 144.44444444444443 110.76388888888891 144.44444444444443 Q 110.41666666666669 144.44444444444443 110.06944444444447 144.79166666666666 Q 109.72222222222226 145.13888888888889 109.72222222222226 145.48611111111111 Q 109.72222222222226 145.83333333333334 109.72222222222226 146.52777777777777 Q 109.72222222222226 147.22222222222223 109.72222222222226 147.56944444444446 Q 109.72222222222226 147.91666666666666 109.37500000000003 148.26388888888889 Q 109.0277777777778 148.61111111111111 109.0277777777778 148.95833333333331 Q 109.0277777777778 149.30555555555554 109.0277777777778 150 Q 109.0277777777778 150.69444444444443 108.68055555555559 150.69444444444443 Q 108.33333333333337 150.69444444444443 107.98611111111114 150.69444444444443 Q 107.63888888888891 150.69444444444443 107.63888888888891 151.04166666666666 Q 107.63888888888891 151.38888888888889 107.29166666666669 151.38888888888889 Q 106.94444444444446 151.38888888888889 106.94444444444446 151.73611111111111 Q 106.94444444444446 152.08333333333334 106.94444444444446 152.43055555555554 Q 106.94444444444446 152.77777777777777 106.94444444444446 153.125 Q 106.94444444444446 153.47222222222223 106.59722222222224 153.47222222222223 Q 106.25000000000003 153.47222222222223 106.25000000000003 153.81944444444446 Q 106.25000000000003 154.16666666666666 105.9027777777778 154.16666666666666 Q 105.55555555555557 154.16666666666666 105.20833333333336 154.8611111111111 Q 104.86111111111114 155.55555555555554 104.51388888888891 155.55555555555554 Q 104.16666666666669 155.55555555555554 104.16666666666669 155.90277777777777 Q 104.16666666666669 156.25 103.81944444444447 156.59722222222223 Q 103.47222222222226 156.94444444444443 103.47222222222226 157.29166666666666 Q 103.47222222222226 157.63888888888889 103.12500000000003 157.63888888888889 Q 102.7777777777778 157.63888888888889 102.43055555555559 157.98611111111111 Q 102.08333333333337 158.33333333333334 101.73611111111114 158.68055555555554 Q 101.38888888888891 159.02777777777777 101.04166666666669 159.375 Q 100.69444444444446 159.72222222222223 100.69444444444446 160.06944444444446 Q 100.69444444444446 160.41666666666666 100.00000000000001 160.76388888888889 Q 99.30555555555557 161.11111111111111 98.95833333333336 161.45833333333331 Q 98.61111111111114 161.80555555555554 98.61111111111114 162.15277777777777 Q 98.61111111111114 162.5 98.26388888888891 162.5 Q 97.91666666666669 162.5 97.56944444444447 162.5 Q 97.22222222222226 162.5 96.87500000000003 162.84722222222223 Q 96.5277777777778 163.19444444444443 96.5277777777778 163.54166666666666 Q 96.5277777777778 163.88888888888889 96.18055555555559 163.88888888888889 Q 95.83333333333337 163.88888888888889 95.48611111111114 163.88888888888889 Q 95.13888888888891 163.88888888888889 94.79166666666669 163.88888888888889 Q 94.44444444444446 163.88888888888889 94.09722222222224 163.88888888888889 Q 93.75000000000003 163.88888888888889 92.70833333333336 164.23611111111111 Q 91.66666666666669 164.58333333333334 90.97222222222224 165.27777777777777 Q 90.2777777777778 165.97222222222223 89.58333333333336 165.97222222222223 Q 88.88888888888891 165.97222222222223 88.54166666666669 165.97222222222223 Q 88.19444444444446 165.97222222222223 87.84722222222224 165.97222222222223 Q 87.50000000000003 165.97222222222223 87.50000000000003 165.625 Q 87.50000000000003 165.27777777777777 87.1527777777778 164.93055555555554 Q 86.80555555555557 164.58333333333334 86.11111111111113 164.58333333333334 Q 85.41666666666669 164.58333333333334 85.06944444444447 164.58333333333334 Q 84.72222222222226 164.58333333333334 84.02777777777781 164.58333333333334 Q 83.33333333333337 164.58333333333334 82.98611111111114 164.58333333333334 Q 82.63888888888891 164.58333333333334 82.63888888888891 164.23611111111111 Q 82.63888888888891 163.88888888888889 82.2916666666667 163.88888888888889 Q 81.94444444444449 163.88888888888889 81.94444444444449 163.54166666666666 Q 81.94444444444449 163.19444444444443 81.59722222222226 162.84722222222223 Q 81.25000000000003 162.5 80.9027777777778 162.5 Q 80.55555555555557 162.5 80.55555555555557 162.15277777777777 Q 80.55555555555557 161.80555555555554 80.20833333333336 161.80555555555554 Q 79.86111111111114 161.80555555555554 79.51388888888891 161.45833333333331 Q 79.16666666666669 161.11111111111111 79.16666666666669 160.76388888888889 Q 79.16666666666669 160.41666666666666 79.16666666666669 160.06944444444446 Q 79.16666666666669 159.72222222222223 79.16666666666669 159.375 Q 79.16666666666669 159.02777777777777 79.51388888888891 159.02777777777777 Q 79.86111111111114 159.02777777777777 79.86111111111114 158.68055555555554 Q 79.86111111111114 158.33333333333334 80.20833333333336 158.33333333333334 Q 80.55555555555557 158.33333333333334 80.9027777777778 158.33333333333334 Q 81.25000000000003 158.33333333333334 81.59722222222226 157.98611111111111 Q 81.94444444444449 157.63888888888889 82.2916666666667 157.29166666666666 Q 82.63888888888891 156.94444444444443 82.63888888888891 156.59722222222223 Q 82.63888888888891 156.25 82.98611111111114 156.25 Q 83.33333333333337 156.25 83.68055555555559 156.25 Q 84.0277777777778 156.25 84.37500000000003 156.25 Q 84.72222222222226 156.25 85.06944444444447 156.25 Q 85.41666666666669 156.25 85.76388888888891 156.25 Q 86.11111111111114 156.25 86.11111111111114 156.59722222222223 Q 86.11111111111114 156.94444444444443 86.45833333333336 156.94444444444443 Q 86.80555555555557 156.94444444444443 87.1527777777778 156.94444444444443 Q 87.50000000000003 156.94444444444443 87.50000000000003 157.29166666666666 Q 87.50000000000003 157.63888888888889 87.84722222222224 157.63888888888889 Q 88.19444444444446 157.63888888888889 88.54166666666669 157.63888888888889 Q 88.88888888888891 157.63888888888889 89.23611111111114 157.63888888888889 Q 89.58333333333337 157.63888888888889 89.93055555555559 157.98611111111111 Q 90.2777777777778 158.33333333333334 90.2777777777778 158.68055555555554 Q 90.2777777777778 159.02777777777777 90.62500000000003 159.02777777777777 Q 90.97222222222226 159.02777777777777 91.6666666666667 159.02777777777777 Q 92.36111111111114 159.02777777777777 92.36111111111114 159.375 Q 92.36111111111114 159.72222222222223 92.36111111111114 160.06944444444446 Q 92.36111111111114 160.41666666666666 92.70833333333336 160.41666666666666 Q 93.05555555555557 160.41666666666666 93.05555555555557 160.76388888888889 Q 93.05555555555557 161.11111111111111 93.05555555555557 161.45833333333331 Q 93.05555555555557 161.80555555555554 93.4027777777778 161.80555555555554 Q 93.75000000000003 161.80555555555554 94.09722222222224 161.80555555555554 Q 94.44444444444446 161.80555555555554 94.44444444444446 162.15277777777777 Q 94.44444444444446 162.5 94.79166666666669 162.84722222222223 Q 95.13888888888891 163.19444444444443 95.48611111111114 163.54166666666666 Q 95.83333333333337 163.88888888888889 95.83333333333337 164.23611111111111 Q 95.83333333333337 164.58333333333334 95.83333333333337 165.27777777777777 Q 95.83333333333337 165.97222222222223 96.52777777777781 165.97222222222223 Q 97.22222222222226 165.97222222222223 97.56944444444447 166.66666666666669 Q 97.91666666666669 167.36111111111111 98.26388888888891 167.36111111111111 Q 98.61111111111114 167.36111111111111 98.61111111111114 167.70833333333331 Q 98.61111111111114 168.05555555555554 99.30555555555559 168.40277777777777 Q 100.00000000000003 168.75 100.34722222222224 169.44444444444446 Q 100.69444444444446 170.13888888888889 101.04166666666669 170.13888888888889 Q 101.38888888888891 170.13888888888889 101.73611111111114 170.83333333333331 Q 102.08333333333337 171.52777777777777 102.43055555555559 171.875 Q 102.7777777777778 172.22222222222223 103.12500000000003 172.22222222222223 Q 103.47222222222226 172.22222222222223 103.47222222222226 172.56944444444446 Q 103.47222222222226 172.91666666666666 103.81944444444447 172.91666666666666 Q 104.16666666666669 172.91666666666666 104.16666666666669 173.26388888888889 Q 104.16666666666669 173.61111111111111 104.86111111111113 173.95833333333331 Q 105.55555555555557 174.30555555555554 105.9027777777778 174.65277777777777 Q 106.25000000000003 175 106.25000000000003 175.34722222222223 Q 106.25000000000003 175.69444444444443 106.59722222222224 175.69444444444443 Q 106.94444444444446 175.69444444444443 107.29166666666669 175.69444444444443 Q 107.63888888888891 175.69444444444443 108.33333333333336 176.38888888888889 Q 109.0277777777778 177.08333333333334 109.37500000000003 177.08333333333334 Q 109.72222222222226 177.08333333333334 110.06944444444447 177.77777777777777 Q 110.41666666666669 178.47222222222223 111.45833333333336 178.47222222222223 Q 112.50000000000003 178.47222222222223 113.19444444444447 178.81944444444446 Q 113.88888888888891 179.16666666666666 114.23611111111114 179.16666666666666 Q 114.58333333333337 179.16666666666666 114.58333333333337 179.51388888888889 Q 114.58333333333337 179.86111111111111 114.93055555555559 179.86111111111111 Q 115.2777777777778 179.86111111111111 115.62500000000003 179.86111111111111 Q 115.97222222222226 179.86111111111111 116.66666666666669 180.20833333333331 Q 117.36111111111111 180.55555555555554 117.36111111111111 180.90277777777777 Q 117.36111111111111 181.25 117.70833333333334 181.25 Q 118.05555555555557 181.25 118.4027777777778 181.25 Q 118.75000000000003 181.25 118.75000000000003 181.59722222222223 Q 118.75000000000003 181.94444444444443 119.79166666666669 181.94444444444443 Q 120.83333333333334 181.94444444444443 120.83333333333334 182.29166666666666 Q 120.83333333333334 182.63888888888889 121.18055555555557 182.63888888888889 Q 121.5277777777778 182.63888888888889 121.87500000000003 182.98611111111111 Q 122.22222222222226 183.33333333333334 122.56944444444449 183.33333333333334 Q 122.91666666666671 183.33333333333334 123.26388888888891 183.68055555555554 Q 123.61111111111111 184.02777777777777 123.95833333333334 184.02777777777777 Q 124.30555555555557 184.02777777777777 125.00000000000003 184.02777777777777 Q 125.69444444444449 184.02777777777777 126.04166666666669 184.375 Q 126.38888888888889 184.72222222222223 126.38888888888889 185.06944444444446 Q 126.38888888888889 185.41666666666666 126.73611111111111 185.41666666666666 Q 127.08333333333334 185.41666666666666 127.43055555555557 185.41666666666666 Q 127.7777777777778 185.41666666666666 128.12500000000003 185.41666666666666 Q 128.47222222222226 185.41666666666666 128.81944444444449 185.76388888888889 Q 129.1666666666667 186.11111111111111 129.5138888888889 186.45833333333331 Q 129.86111111111111 186.80555555555554 130.20833333333334 186.80555555555554 Q 130.55555555555557 186.80555555555554 130.9027777777778 186.80555555555554 Q 131.25000000000003 186.80555555555554 131.59722222222226 186.80555555555554 Q 131.94444444444449 186.80555555555554 132.29166666666669 186.80555555555554 Q 132.63888888888889 186.80555555555554 132.63888888888889 187.15277777777777 Q 132.63888888888889 187.5 133.33333333333334 187.84722222222223 Q 134.0277777777778 188.19444444444443 134.37500000000003 188.19444444444443 Q 134.72222222222226 188.19444444444443 135.06944444444449 188.19444444444443 Q 135.4166666666667 188.19444444444443 135.06944444444449 188.54166666666666 L 134.72122222222225 188.8898888888889" stroke-linecap="round" />
</g>
<g transform="matrix(1 0 0 1 100.3033194444 111.8055555556)" id="ubfNa35VT3-3tO2I53tNL"  >
<path style="stroke: rgb(0,0,0); stroke-width: 1; stroke-dasharray: none; stroke-linecap: round; stroke-dashoffset: 0; stroke-linejoin: round; stroke-miterlimit: 10; fill: none; fill-rule: nonzero; opacity: 1;" vector-effect="non-scaling-stroke"  transform=" translate(-100.3033194444, -111.8055555556)" d="M 68.05455555555557 111.80555555555556 Q 68.05555555555557 111.80555555555556 68.4027777777778 111.80555555555556 Q 68.75000000000003 111.80555555555556 69.44444444444447 111.80555555555556 Q 70.13888888888891 111.80555555555556 70.83333333333336 111.80555555555556 Q 71.5277777777778 111.80555555555556 72.91666666666669 111.80555555555556 Q 74.30555555555557 111.80555555555556 75.00000000000003 111.80555555555556 Q 75.69444444444449 111.80555555555556 76.73611111111114 111.80555555555556 Q 77.7777777777778 111.80555555555556 78.47222222222224 111.80555555555556 Q 79.16666666666669 111.80555555555556 79.51388888888891 111.80555555555556 Q 79.86111111111114 111.80555555555556 80.20833333333336 111.80555555555556 Q 80.55555555555557 111.80555555555556 80.9027777777778 111.80555555555556 Q 81.25000000000003 111.80555555555556 82.2916666666667 111.80555555555556 Q 83.33333333333337 111.80555555555556 83.68055555555559 111.80555555555556 Q 84.0277777777778 111.80555555555556 84.37500000000003 111.80555555555556 Q 84.72222222222226 111.80555555555556 85.4166666666667 111.80555555555556 Q 86.11111111111114 111.80555555555556 86.45833333333336 111.80555555555556 Q 86.80555555555557 111.80555555555556 87.1527777777778 111.80555555555556 Q 87.50000000000003 111.80555555555556 88.19444444444447 111.80555555555556 Q 88.88888888888891 111.80555555555556 89.23611111111114 111.80555555555556 Q 89.58333333333337 111.80555555555556 90.27777777777781 111.80555555555556 Q 90.97222222222226 111.80555555555556 91.6666666666667 111.80555555555556 Q 92.36111111111114 111.80555555555556 92.70833333333336 111.80555555555556 Q 93.05555555555557 111.80555555555556 93.4027777777778 111.80555555555556 Q 93.75000000000003 111.80555555555556 94.44444444444447 111.80555555555556 Q 95.13888888888891 111.80555555555556 95.48611111111114 111.80555555555556 Q 95.83333333333337 111.80555555555556 96.52777777777781 111.80555555555556 Q 97.22222222222226 111.80555555555556 97.56944444444447 111.80555555555556 Q 97.91666666666669 111.80555555555556 98.26388888888891 111.80555555555556 Q 98.61111111111114 111.80555555555556 99.30555555555559 111.80555555555556 Q 100.00000000000003 111.80555555555556 100.34722222222224 111.80555555555556 Q 100.69444444444446 111.80555555555556 101.04166666666669 111.80555555555556 Q 101.38888888888891 111.80555555555556 101.73611111111114 111.80555555555556 Q 102.08333333333337 111.80555555555556 102.43055555555559 111.80555555555556 Q 102.7777777777778 111.80555555555556 103.47222222222224 111.80555555555556 Q 104.16666666666669 111.80555555555556 104.51388888888891 111.80555555555556 Q 104.86111111111114 111.80555555555556 105.55555555555559 111.80555555555556 Q 106.25000000000003 111.80555555555556 106.59722222222224 111.80555555555556 Q 106.94444444444446 111.80555555555556 107.63888888888891 111.80555555555556 Q 108.33333333333337 111.80555555555556 108.68055555555559 111.80555555555556 Q 109.0277777777778 111.80555555555556 109.37500000000003 111.80555555555556 Q 109.72222222222226 111.80555555555556 110.06944444444447 111.80555555555556 Q 110.41666666666669 111.80555555555556 110.76388888888891 111.80555555555556 Q 111.11111111111114 111.80555555555556 111.80555555555559 111.80555555555556 Q 112.50000000000003 111.80555555555556 112.84722222222224 111.80555555555556 Q 113.19444444444446 111.80555555555556 113.54166666666669 111.80555555555556 Q 113.88888888888891 111.80555555555556 114.23611111111114 111.80555555555556 Q 114.58333333333337 111.80555555555556 114.93055555555559 111.80555555555556 Q 115.2777777777778 111.80555555555556 115.62500000000003 111.80555555555556 Q 115.97222222222226 111.80555555555556 116.31944444444449 111.80555555555556 Q 116.66666666666671 111.80555555555556 117.36111111111114 111.80555555555556 Q 118.05555555555557 111.80555555555556 118.4027777777778 111.80555555555556 Q 118.75000000000003 111.80555555555556 119.09722222222226 111.80555555555556 Q 119.44444444444449 111.80555555555556 119.79166666666671 111.80555555555556 Q 120.13888888888894 111.80555555555556 120.48611111111114 111.80555555555556 Q 120.83333333333334 111.80555555555556 121.18055555555557 111.80555555555556 Q 121.5277777777778 111.80555555555556 121.87500000000003 111.80555555555556 Q 122.22222222222226 111.80555555555556 122.56944444444449 111.80555555555556 Q 122.91666666666671 111.80555555555556 123.26388888888891 111.80555555555556 Q 123.61111111111111 111.80555555555556 124.30555555555557 111.80555555555556 Q 125.00000000000003 111.80555555555556 125.69444444444446 111.80555555555556 Q 126.38888888888889 111.80555555555556 126.73611111111111 111.80555555555556 Q 127.08333333333334 111.80555555555556 127.43055555555557 111.80555555555556 Q 127.7777777777778 111.80555555555556 128.12500000000003 111.80555555555556 Q 128.47222222222226 111.80555555555556 128.81944444444449 111.80555555555556 Q 129.1666666666667 111.80555555555556 129.86111111111114 111.80555555555556 Q 130.55555555555557 111.80555555555556 130.9027777777778 111.80555555555556 Q 131.25000000000003 111.80555555555556 131.59722222222226 111.80555555555556 Q 131.94444444444449 111.80555555555556 132.29166666666669 111.80555555555556 Q 132.63888888888889 111.80555555555556 132.29166666666669 111.80555555555556 L 131.94344444444448 111.80555555555556" stroke-linecap="round" />
</g>
<g transform="matrix(1 0 0 1 420.4866111111 142.9675130341)" id="fkCZ0TSWOHlNV-N_m3R9U"  >
<path style="stroke: rgb(0,0,0); stroke-width: 1; stroke-dasharray: none; stroke-linecap: round; stroke-dashoffset: 0; stroke-linejoin: round; stroke-miterlimit: 10; fill: none; fill-rule: nonzero; opacity: 1;" vector-effect="non-scaling-stroke"  transform=" translate(-420.4866111111, -142.9675130341)" d="M 418.05555555555554 100.69344444444444 Q 418.05555555555554 100.69444444444444 418.05555555555554 101.73611111111111 Q 418.05555555555554 102.77777777777777 418.05555555555554 103.47222222222223 Q 418.05555555555554 104.16666666666667 418.40277777777777 104.51388888888889 Q 418.75 104.86111111111111 418.75 105.20833333333334 Q 418.75 105.55555555555556 419.09722222222223 105.90277777777777 Q 419.44444444444446 106.25 419.44444444444446 106.94444444444444 Q 419.44444444444446 107.63888888888889 419.7916666666667 108.33333333333333 Q 420.1388888888889 109.02777777777777 420.1388888888889 110.06944444444444 Q 420.1388888888889 111.11111111111111 420.1388888888889 111.80555555555556 Q 420.1388888888889 112.5 420.1388888888889 113.19444444444444 Q 420.1388888888889 113.88888888888889 420.1388888888889 114.23611111111111 Q 420.1388888888889 114.58333333333334 420.1388888888889 114.93055555555556 Q 420.1388888888889 115.27777777777777 420.1388888888889 115.625 Q 420.1388888888889 115.97222222222223 420.1388888888889 116.31944444444444 Q 420.1388888888889 116.66666666666666 420.1388888888889 117.01388888888889 Q 420.1388888888889 117.36111111111111 420.1388888888889 118.05555555555556 Q 420.1388888888889 118.75 420.1388888888889 119.44444444444444 Q 420.1388888888889 120.13888888888889 420.1388888888889 120.48611111111111 Q 420.1388888888889 120.83333333333334 420.1388888888889 121.875 Q 420.1388888888889 122.91666666666666 420.1388888888889 123.6111111111111 Q 420.1388888888889 124.30555555555554 420.1388888888889 124.99999999999999 Q 420.1388888888889 125.69444444444443 420.1388888888889 126.38888888888889 Q 420.1388888888889 127.08333333333334 420.1388888888889 127.43055555555556 Q 420.1388888888889 127.77777777777777 420.1388888888889 128.125 Q 420.1388888888889 128.47222222222223 420.1388888888889 129.16666666666669 Q 420.1388888888889 129.86111111111111 420.48611111111114 130.55555555555554 Q 420.83333333333337 131.25 420.83333333333337 132.29166666666669 Q 420.83333333333337 133.33333333333334 420.83333333333337 133.68055555555554 Q 420.83333333333337 134.02777777777777 420.83333333333337 135.41666666666666 Q 420.83333333333337 136.80555555555554 420.83333333333337 137.5 Q 420.83333333333337 138.19444444444443 421.1805555555556 138.54166666666666 Q 421.5277777777778 138.88888888888889 421.5277777777778 139.23611111111111 Q 421.5277777777778 139.58333333333334 421.5277777777778 139.93055555555554 Q 421.5277777777778 140.27777777777777 421.5277777777778 140.625 Q 421.5277777777778 140.97222222222223 421.5277777777778 141.31944444444446 Q 421.5277777777778 141.66666666666666 421.5277777777778 143.40277777777777 Q 421.5277777777778 145.13888888888889 421.87500000000006 146.18055555555554 Q 422.2222222222223 147.22222222222223 422.2222222222223 148.61111111111111 Q 422.2222222222223 150 422.5694444444445 152.08333333333331 Q 422.91666666666674 154.16666666666666 422.91666666666674 155.20833333333331 Q 422.91666666666674 156.25 422.91666666666674 157.63888888888889 Q 422.91666666666674 159.02777777777777 422.91666666666674 159.375 Q 422.91666666666674 159.72222222222223 422.91666666666674 160.06944444444446 Q 422.91666666666674 160.41666666666666 422.91666666666674 160.76388888888889 Q 422.91666666666674 161.11111111111111 422.91666666666674 161.45833333333331 Q 422.91666666666674 161.80555555555554 422.91666666666674 162.15277777777777 Q 422.91666666666674 162.5 422.91666666666674 163.54166666666669 Q 422.91666666666674 164.58333333333334 422.91666666666674 165.27777777777777 Q 422.91666666666674 165.97222222222223 422.91666666666674 166.31944444444446 Q 422.91666666666674 166.66666666666666 422.91666666666674 167.01388888888889 Q 422.91666666666674 167.36111111111111 422.91666666666674 167.70833333333331 Q 422.91666666666674 168.05555555555554 422.91666666666674 168.40277777777777 Q 422.91666666666674 168.75 422.91666666666674 169.09722222222223 Q 422.91666666666674 169.44444444444443 422.91666666666674 169.79166666666666 Q 422.91666666666674 170.13888888888889 422.91666666666674 171.18055555555554 Q 422.91666666666674 172.22222222222223 422.91666666666674 172.91666666666669 Q 422.91666666666674 173.61111111111111 422.91666666666674 174.30555555555554 Q 422.91666666666674 175 422.91666666666674 175.34722222222223 Q 422.91666666666674 175.69444444444443 422.91666666666674 176.04166666666666 Q 422.91666666666674 176.38888888888889 422.91666666666674 176.73611111111111 Q 422.91666666666674 177.08333333333334 422.91666666666674 177.77777777777777 Q 422.91666666666674 178.47222222222223 422.91666666666674 179.16666666666669 Q 422.91666666666674 179.86111111111111 422.5694444444445 180.55555555555554 Q 422.2222222222223 181.25 422.2222222222223 181.59722222222223 Q 422.2222222222223 181.94444444444443 422.2222222222223 182.29166666666666 Q 422.2222222222223 182.63888888888889 422.2222222222223 182.98611111111111 Q 422.2222222222223 183.33333333333334 422.2222222222223 183.68055555555554 Q 422.2222222222223 184.02777777777777 422.2222222222223 184.375 Q 422.2222222222223 184.72222222222223 422.2222222222223 185.06944444444446 Q 422.2222222222223 185.41666666666666 422.5694444444445 183.33333333333331 L 422.9176666666667 181.249" stroke-linecap="round" />
</g>
<g transform="matrix(1 0 0 1 382.6393888889 161.4583333333)" id="Glb2bQvmWMHL1uU3xZecX"  >
<path style="stroke: rgb(0,0,0); stroke-width: 1; stroke-dasharray: none; stroke-linecap: round; stroke-dashoffset: 0; stroke-linejoin: round; stroke-miterlimit: 10; fill: none; fill-rule: nonzero; opacity: 1;" vector-effect="non-scaling-stroke"  transform=" translate(-382.6393888889, -161.4583333333)" d="M 420.1398888888889 129.8601111111111 Q 420.1388888888889 129.86111111111111 419.44444444444446 130.20833333333331 Q 418.75 130.55555555555554 417.70833333333337 131.25 Q 416.66666666666674 131.94444444444443 415.62500000000006 132.9861111111111 Q 414.58333333333337 134.02777777777777 412.50000000000006 135.41666666666666 Q 410.41666666666674 136.80555555555554 409.37500000000006 137.5 Q 408.33333333333337 138.19444444444443 407.98611111111114 138.88888888888889 Q 407.6388888888889 139.58333333333334 407.2916666666667 139.58333333333334 Q 406.94444444444446 139.58333333333334 406.59722222222223 139.93055555555554 Q 406.25 140.27777777777777 406.25 140.625 Q 406.25 140.97222222222223 405.90277777777777 140.97222222222223 Q 405.55555555555554 140.97222222222223 404.86111111111114 141.66666666666669 Q 404.16666666666674 142.36111111111111 403.4722222222223 142.36111111111111 Q 402.7777777777778 142.36111111111111 401.73611111111114 143.75 Q 400.69444444444446 145.13888888888889 400 145.48611111111111 Q 399.30555555555554 145.83333333333334 398.61111111111114 146.18055555555554 Q 397.91666666666674 146.52777777777777 396.87500000000006 147.22222222222223 Q 395.83333333333337 147.91666666666666 395.83333333333337 148.26388888888889 Q 395.83333333333337 148.61111111111111 394.7916666666667 149.30555555555554 Q 393.75 150 393.40277777777777 150 Q 393.05555555555554 150 392.36111111111114 150.34722222222223 Q 391.66666666666674 150.69444444444443 391.66666666666674 151.04166666666666 Q 391.66666666666674 151.38888888888889 391.3194444444445 151.38888888888889 Q 390.9722222222223 151.38888888888889 390.62500000000006 151.38888888888889 Q 390.2777777777778 151.38888888888889 390.2777777777778 151.04166666666666 Q 390.2777777777778 150.69444444444443 389.9305555555556 150.69444444444443 Q 389.58333333333337 150.69444444444443 389.23611111111114 150.34722222222223 Q 388.8888888888889 150 388.8888888888889 149.65277777777777 Q 388.8888888888889 149.30555555555554 388.19444444444446 149.30555555555554 Q 387.5 149.30555555555554 387.5 148.95833333333331 Q 387.5 148.61111111111111 387.5 148.26388888888889 Q 387.5 147.91666666666666 387.1527777777778 147.91666666666666 Q 386.80555555555566 147.91666666666666 386.4583333333334 147.22222222222223 Q 386.1111111111112 146.52777777777777 385.76388888888897 146.52777777777777 Q 385.41666666666674 146.52777777777777 385.0694444444445 145.83333333333331 Q 384.7222222222223 145.13888888888889 384.37500000000006 145.13888888888889 Q 384.0277777777778 145.13888888888889 384.0277777777778 144.79166666666666 Q 384.0277777777778 144.44444444444443 383.6805555555556 144.09722222222223 Q 383.33333333333337 143.75 382.98611111111114 143.75 Q 382.6388888888889 143.75 382.6388888888889 143.40277777777777 Q 382.6388888888889 143.05555555555554 382.2916666666667 143.05555555555554 Q 381.94444444444446 143.05555555555554 381.94444444444446 142.70833333333331 Q 381.94444444444446 142.36111111111111 381.59722222222223 142.36111111111111 Q 381.25 142.36111111111111 380.9027777777778 142.36111111111111 Q 380.55555555555566 142.36111111111111 380.2083333333334 142.36111111111111 Q 379.8611111111112 142.36111111111111 379.51388888888897 142.01388888888889 Q 379.16666666666674 141.66666666666666 378.8194444444445 141.31944444444446 Q 378.4722222222223 140.97222222222223 378.12500000000006 140.625 Q 377.7777777777778 140.27777777777777 377.7777777777778 139.93055555555554 Q 377.7777777777778 139.58333333333334 377.08333333333337 139.58333333333334 Q 376.3888888888889 139.58333333333334 376.0416666666667 139.58333333333334 Q 375.69444444444446 139.58333333333334 375.34722222222223 139.23611111111111 Q 375 138.88888888888889 374.6527777777778 138.54166666666666 Q 374.30555555555566 138.19444444444443 373.9583333333334 138.19444444444443 Q 373.6111111111112 138.19444444444443 372.91666666666674 137.84722222222223 Q 372.2222222222223 137.5 371.5277777777778 137.15277777777777 Q 370.83333333333337 136.80555555555554 370.48611111111114 136.80555555555554 Q 370.1388888888889 136.80555555555554 369.7916666666667 136.80555555555554 Q 369.44444444444446 136.80555555555554 369.09722222222223 136.80555555555554 Q 368.75 136.80555555555554 368.40277777777777 136.80555555555554 Q 368.05555555555554 136.80555555555554 368.05555555555554 136.45833333333331 Q 368.05555555555554 136.11111111111111 367.7083333333333 135.76388888888889 Q 367.3611111111111 135.41666666666666 367.01388888888886 135.41666666666666 Q 366.66666666666663 135.41666666666666 365.97222222222223 135.41666666666666 Q 365.2777777777778 135.41666666666666 364.58333333333337 135.06944444444446 Q 363.8888888888889 134.72222222222223 363.5416666666667 134.375 Q 363.19444444444446 134.02777777777777 362.84722222222223 134.02777777777777 Q 362.5 134.02777777777777 362.15277777777777 134.02777777777777 Q 361.80555555555554 134.02777777777777 361.4583333333333 134.02777777777777 Q 361.1111111111111 134.02777777777777 360.76388888888886 134.02777777777777 Q 360.41666666666663 134.02777777777777 360.06944444444446 134.02777777777777 Q 359.7222222222223 134.02777777777777 359.37500000000006 134.02777777777777 Q 359.0277777777778 134.02777777777777 358.6805555555556 134.02777777777777 Q 358.33333333333337 134.02777777777777 357.6388888888889 134.02777777777777 Q 356.94444444444446 134.02777777777777 356.59722222222223 134.02777777777777 Q 356.25 134.02777777777777 355.55555555555554 134.02777777777777 Q 354.8611111111111 134.02777777777777 354.51388888888886 134.02777777777777 Q 354.16666666666663 134.02777777777777 353.47222222222223 134.02777777777777 Q 352.7777777777778 134.02777777777777 352.4305555555556 134.02777777777777 Q 352.08333333333337 134.02777777777777 351.73611111111114 134.02777777777777 Q 351.3888888888889 134.02777777777777 351.0416666666667 134.02777777777777 Q 350.69444444444446 134.02777777777777 350.34722222222223 134.02777777777777 Q 350 134.02777777777777 349.65277777777777 134.02777777777777 Q 349.30555555555554 134.02777777777777 348.9583333333333 134.02777777777777 Q 348.6111111111111 134.02777777777777 348.26388888888886 134.02777777777777 Q 347.91666666666663 134.02777777777777 347.56944444444446 134.02777777777777 Q 347.2222222222223 134.02777777777777 347.2222222222223 134.375 Q 347.2222222222223 134.72222222222223 347.2222222222223 135.06944444444446 Q 347.2222222222223 135.41666666666666 347.2222222222223 135.76388888888889 Q 347.2222222222223 136.11111111111111 347.2222222222223 136.45833333333331 Q 347.2222222222223 136.80555555555554 347.2222222222223 137.15277777777777 Q 347.2222222222223 137.5 346.87500000000006 137.5 Q 346.5277777777778 137.5 346.5277777777778 137.84722222222223 Q 346.5277777777778 138.19444444444443 346.5277777777778 138.54166666666666 Q 346.5277777777778 138.88888888888889 346.1805555555556 138.88888888888889 Q 345.83333333333337 138.88888888888889 345.83333333333337 139.23611111111111 Q 345.83333333333337 139.58333333333334 345.83333333333337 139.93055555555554 Q 345.83333333333337 140.27777777777777 345.83333333333337 140.625 Q 345.83333333333337 140.97222222222223 345.83333333333337 141.66666666666669 Q 345.83333333333337 142.36111111111111 345.48611111111114 142.70833333333331 Q 345.1388888888889 143.05555555555554 345.1388888888889 143.75 Q 345.1388888888889 144.44444444444443 345.1388888888889 144.79166666666666 Q 345.1388888888889 145.13888888888889 345.1388888888889 145.48611111111111 Q 345.1388888888889 145.83333333333334 345.1388888888889 146.18055555555554 Q 345.1388888888889 146.52777777777777 345.1388888888889 146.875 Q 345.1388888888889 147.22222222222223 345.1388888888889 147.56944444444446 Q 345.1388888888889 147.91666666666666 345.1388888888889 148.26388888888889 Q 345.1388888888889 148.61111111111111 345.1388888888889 149.65277777777777 Q 345.1388888888889 150.69444444444443 345.1388888888889 151.38888888888889 Q 345.1388888888889 152.08333333333334 345.1388888888889 152.77777777777777 Q 345.1388888888889 153.47222222222223 345.1388888888889 153.81944444444446 Q 345.1388888888889 154.16666666666666 345.1388888888889 154.51388888888889 Q 345.1388888888889 154.86111111111111 345.1388888888889 155.20833333333331 Q 345.1388888888889 155.55555555555554 345.1388888888889 155.90277777777777 Q 345.1388888888889 156.25 345.1388888888889 156.59722222222223 Q 345.1388888888889 156.94444444444443 345.1388888888889 157.9861111111111 Q 345.1388888888889 159.02777777777777 345.1388888888889 159.375 Q 345.1388888888889 159.72222222222223 345.1388888888889 160.06944444444446 Q 345.1388888888889 160.41666666666666 345.48611111111114 161.45833333333331 Q 345.83333333333337 162.5 345.83333333333337 163.54166666666669 Q 345.83333333333337 164.58333333333334 345.83333333333337 164.93055555555554 Q 345.83333333333337 165.27777777777777 345.83333333333337 165.625 Q 345.83333333333337 165.97222222222223 345.83333333333337 166.31944444444446 Q 345.83333333333337 166.66666666666666 345.83333333333337 167.01388888888889 Q 345.83333333333337 167.36111111111111 346.1805555555556 167.36111111111111 Q 346.5277777777778 167.36111111111111 346.5277777777778 167.70833333333331 Q 346.5277777777778 168.05555555555554 346.87500000000006 168.40277777777777 Q 347.2222222222223 168.75 347.56944444444446 168.75 Q 347.91666666666663 168.75 348.26388888888886 168.75 Q 348.6111111111111 168.75 348.6111111111111 169.44444444444446 Q 348.6111111111111 170.13888888888889 348.9583333333333 170.13888888888889 Q 349.30555555555554 170.13888888888889 349.30555555555554 170.48611111111111 Q 349.30555555555554 170.83333333333334 349.65277777777777 170.83333333333334 Q 350 170.83333333333334 350.34722222222223 170.83333333333334 Q 350.69444444444446 170.83333333333334 351.0416666666667 171.18055555555554 Q 351.3888888888889 171.52777777777777 351.3888888888889 171.875 Q 351.3888888888889 172.22222222222223 351.3888888888889 172.56944444444446 Q 351.3888888888889 172.91666666666666 351.73611111111114 172.91666666666666 Q 352.08333333333337 172.91666666666666 352.4305555555556 173.26388888888889 Q 352.7777777777778 173.61111111111111 353.12500000000006 173.61111111111111 Q 353.4722222222223 173.61111111111111 353.81944444444446 174.65277777777777 Q 354.16666666666663 175.69444444444443 354.8611111111111 175.69444444444443 Q 355.55555555555554 175.69444444444443 355.55555555555554 176.38888888888889 Q 355.55555555555554 177.08333333333334 356.25 177.08333333333334 Q 356.94444444444446 177.08333333333334 357.2916666666667 177.43055555555554 Q 357.6388888888889 177.77777777777777 358.33333333333337 178.125 Q 359.0277777777778 178.47222222222223 359.37500000000006 178.47222222222223 Q 359.7222222222223 178.47222222222223 359.7222222222223 178.81944444444446 Q 359.7222222222223 179.16666666666666 360.4166666666667 179.51388888888889 Q 361.1111111111111 179.86111111111111 361.4583333333333 179.86111111111111 Q 361.80555555555554 179.86111111111111 362.15277777777777 180.20833333333331 Q 362.5 180.55555555555554 362.84722222222223 180.55555555555554 Q 363.19444444444446 180.55555555555554 363.5416666666667 180.90277777777777 Q 363.8888888888889 181.25 364.58333333333337 181.25 Q 365.2777777777778 181.25 365.2777777777778 181.59722222222223 Q 365.2777777777778 181.94444444444443 365.97222222222223 182.29166666666666 Q 366.66666666666663 182.63888888888889 367.01388888888886 182.63888888888889 Q 367.3611111111111 182.63888888888889 367.7083333333333 183.33333333333331 Q 368.05555555555554 184.02777777777777 368.40277777777777 184.02777777777777 Q 368.75 184.02777777777777 369.44444444444446 184.375 Q 370.1388888888889 184.72222222222223 370.48611111111114 185.06944444444446 Q 370.83333333333337 185.41666666666666 371.1805555555556 185.41666666666666 Q 371.5277777777778 185.41666666666666 371.87500000000006 186.1111111111111 Q 372.2222222222223 186.80555555555554 372.5694444444445 186.80555555555554 Q 372.91666666666674 186.80555555555554 373.26388888888897 186.80555555555554 Q 373.6111111111112 186.80555555555554 373.6111111111112 187.15277777777777 Q 373.6111111111112 187.5 373.9583333333334 187.84722222222223 Q 374.30555555555566 188.19444444444443 374.6527777777778 188.54166666666666 Q 375 188.88888888888889 375.69444444444446 189.23611111111111 Q 376.3888888888889 189.58333333333334 377.08333333333337 189.93055555555554 Q 377.7777777777778 190.27777777777777 378.4722222222223 190.97222222222223 Q 379.16666666666674 191.66666666666666 379.51388888888897 191.66666666666666 Q 379.8611111111112 191.66666666666666 380.5555555555556 192.01388888888889 Q 381.25 192.36111111111111 381.94444444444446 192.70833333333331 L 382.6398888888889 193.05655555555555" stroke-linecap="round" />
</g>
<g transform="matrix(0.2798451224 -0.1425882118 0.1308785591 0.256863635 250 198.7471268817)" id="-vo6q1s0cNEjGWWnWvMO1"  >
<path style="stroke: none; stroke-width: 1; stroke-dasharray: none; stroke-linecap: butt; stroke-dashoffset: 0; stroke-linejoin: miter; stroke-miterlimit: 4; fill: rgb(243,117,35); fill-rule: nonzero; opacity: 1;" vector-effect="non-scaling-stroke"  transform=" translate(-297.7852817586, -300.564973585)" d="M 400.744 200.958 C 421.26300000000003 154.8 413.21000000000004 100.657 373.692 67.50999999999999 C 354.759 51.62999999999999 330.833 43.87899999999999 306.483 41.83099999999999 C 292.459 40.65199999999999 277.886 40.71599999999999 264.326 44.91099999999999 C 251.937 48.744 241.273 56 230.709 63.3 C 230.114 63.711 229.847 64.27 229.79 64.84 C 191.737 89.542 177.24599999999998 142.162 187.406 185.101 C 198.219 230.796 243.188 262.894 288.189 269.561 C 337.518 276.868 381.29 244.722 400.744 200.958 z M 197.342 201.142 C 177 157.266 189.967 94.376 231.21 67.166 C 231.687 67.317 232.243 67.271 232.824 66.91799999999999 C 251.36200000000002 55.632999999999996 267.88100000000003 46.67699999999999 290.22 46.489999999999995 C 313.02500000000003 46.29899999999999 336.25300000000004 50.36599999999999 356.173 61.900999999999996 C 397.81 86.012 414.83299999999997 134.42000000000002 402.521 180.19400000000002 C 390.651 224.323 353.92 263.065 306.434 265.545 C 263.965 267.763 215.36 240.004 197.342 201.142 z M 388.389 31.472 C 338.289 -6.7890000000000015 255.58200000000002 -10.832999999999998 208.49800000000002 34.275 C 208.08 34.676 207.91000000000003 35.171 207.918 35.664 C 185.889 54.733000000000004 168.078 76.686 158.711 104.657 C 148.066 136.446 146.45000000000002 171.411 157.11200000000002 203.428 C 174.02900000000002 254.23 226.18600000000004 295.905 280.165 302.758 C 277.46000000000004 323.203 278.331 344.61699999999996 277.857 365.19599999999997 C 277.40200000000004 384.96599999999995 275.41200000000003 405.95799999999997 278.016 425.66999999999996 C 277.909 425.68999999999994 277.80600000000004 425.64599999999996 277.702 425.698 C 271.955 428.601 271.226 432.90099999999995 270.81 438.92699999999996 C 270.149 448.51699999999994 270.348 458.248 270.207 467.85699999999997 C 269.873 490.59299999999996 269.618 513.3299999999999 269.355 536.067 C 269.237 546.294 269.11600000000004 556.52 268.98400000000004 566.747 C 268.901 573.159 266.85900000000004 582.842 269.19500000000005 588.852 C 274.18100000000004 601.679 294.45500000000004 600.193 305.53700000000003 598.2239999999999 C 305.79400000000004 598.3699999999999 306.091 598.4739999999999 306.48400000000004 598.463 C 319.93500000000006 598.079 321.93000000000006 585.1619999999999 322.25000000000006 574.0419999999999 C 322.77500000000003 555.882 322.00200000000007 537.6179999999999 322.01000000000005 519.4449999999999 C 322.01800000000003 500.03099999999995 321.982 480.61699999999996 321.91200000000003 461.20399999999995 C 321.879 452.02099999999996 324.487 433.07499999999993 316.44500000000005 426.11599999999993 C 321.15500000000003 408.0729999999999 318.27700000000004 386.05799999999994 318.20000000000005 367.52899999999994 C 318.10900000000004 345.77799999999996 319.71000000000004 323.6019999999999 318.46600000000007 301.88499999999993 C 370.89400000000006 292.96599999999995 415.1720000000001 254.09199999999993 434.85900000000004 204.75999999999993 C 459.49 143.036 441.346 71.915 388.389 31.472 z M 317.952 465.594 C 317.908 480.758 317.832 495.921 317.828 511.084 C 317.825 523.797 317.731 536.515 317.919 549.228 C 318.089 560.7189999999999 323.428 592.616 306.483 594.867 C 306.123 594.915 305.838 595.063 305.588 595.246 C 299.079 594.742 292.199 595.316 285.78900000000004 594.356 C 272.56300000000005 592.376 273.46900000000005 583.132 273.58900000000006 572.973 C 273.77700000000004 557.054 273.93300000000005 541.135 274.0880000000001 525.2149999999999 C 274.25200000000007 508.3619999999999 274.4020000000001 491.5079999999999 274.53600000000006 474.65399999999994 C 274.5880000000001 468.05199999999996 274.65000000000003 461.44999999999993 274.6820000000001 454.84799999999996 C 280.82500000000005 460.52 292.2440000000001 463.89199999999994 299.3210000000001 458.15199999999993 C 299.9720000000001 457.6239999999999 299.4430000000001 456.41299999999995 298.6260000000001 456.4749999999999 C 294.5700000000001 456.7799999999999 290.8220000000001 457.86599999999993 286.6980000000001 457.2099999999999 C 282.6090000000001 456.5589999999999 278.9520000000001 454.7989999999999 275.6730000000001 452.31699999999995 C 275.3420000000001 452.066 275.0080000000001 452.06199999999995 274.7020000000001 452.16599999999994 C 274.7020000000001 452.05299999999994 274.7040000000001 451.93999999999994 274.7050000000001 451.82699999999994 C 274.7130000000001 448.69999999999993 274.3750000000001 444.9769999999999 274.4030000000001 441.2919999999999 C 281.82000000000005 448.0959999999999 295.25500000000005 453.1079999999999 304.39200000000005 447.1169999999999 C 305.196 446.5899999999999 304.95900000000006 445.1149999999999 303.86800000000005 445.1819999999999 C 298.91300000000007 445.4839999999999 294.48400000000004 446.6429999999999 289.47400000000005 445.6819999999999 C 284.12100000000004 444.6549999999999 279.47800000000007 442.1949999999999 275.53800000000007 438.4469999999999 C 275.23100000000005 438.1549999999999 274.89000000000004 438.0509999999999 274.56200000000007 438.05599999999987 C 274.8950000000001 434.3649999999999 275.9310000000001 430.9619999999999 278.37500000000006 428.45499999999987 C 278.40700000000004 428.6629999999999 278.4220000000001 428.87599999999986 278.4560000000001 429.0839999999999 C 278.5760000000001 429.82299999999987 279.3020000000001 430.1159999999999 279.98100000000005 430.04399999999987 C 285.2540000000001 434.9089999999999 291.98100000000005 437.29399999999987 299.41700000000003 436.88399999999984 C 305.038 436.57399999999984 312.16700000000003 434.45299999999986 315.016 429.23699999999985 C 320.832 436.967 317.976 457.198 317.952 465.594 z M 283.086 367.04 C 283.41900000000004 346.035 285.533 324.23400000000004 283.838 303.259 C 287.411 303.606 290.988 303.812 294.56 303.841 C 301.494 303.898 308.314 303.339 315.029 302.371 C 312.298 323.31399999999996 313.03499999999997 345.108 313.048 366.15099999999995 C 313.054 375.501 313.079 384.84999999999997 312.974 394.19899999999996 C 312.856 404.775 311.34499999999997 416.02099999999996 313.291 426.45899999999995 C 308.415 430.17499999999995 304.093 432.9839999999999 297.507 432.93499999999995 C 291.349 432.88899999999995 286.379 430.45699999999994 281.402 427.39399999999995 C 284.395 407.764 282.773 386.842 283.086 367.04 z M 314.977 295.92 C 260.69399999999996 305.843 196.64499999999998 270.07800000000003 170.88899999999998 222.318 C 152.856 188.877 150.21999999999997 150.14000000000001 160.028 113.78600000000002 C 168.34099999999998 82.97200000000001 186.36499999999998 58.896000000000015 209.802 37.84600000000002 C 210.194 37.88900000000002 210.607 37.826000000000015 211.01399999999998 37.536000000000016 C 233.07399999999998 21.815000000000015 253.76299999999998 10.927000000000014 281.22299999999996 9.202000000000016 C 311.27599999999995 7.3150000000000155 340.8539999999999 10.228000000000016 367.62299999999993 24.943000000000016 C 424.3259999999999 56.112000000000016 450.03099999999995 120.17200000000001 435.9169999999999 182.61800000000002 C 422.592 241.58 373.558 285.212 314.977 295.92 z M 284.587 69.557 C 259.358 98.32300000000001 231.495 124.815 206.04199999999997 153.436 C 204.86399999999998 154.76000000000002 202.94099999999997 152.816 204.10199999999998 151.496 C 229.19899999999998 122.941 254.33199999999997 93.04100000000001 282.909 67.879 C 284.059 66.866 285.595 68.407 284.587 69.557 z M 259.067 113.791 C 243.421 130.438 228.875 148.025 215.33100000000002 166.42 C 214.17100000000002 167.99499999999998 211.50900000000001 166.481 212.674 164.867 C 225.792 146.684 239.846 129.207 255.007 112.68199999999999 C 269.846 96.50699999999999 285.809 79.32499999999999 304.067 66.99599999999998 C 304.994 66.37099999999998 305.914 67.72799999999998 305.213 68.48099999999998 C 290.541 84.223 273.843 98.072 259.067 113.791 z M 298.71 109.543 C 276.292 136.773 250.118 161.113 226.91299999999998 187.74900000000002 C 225.58899999999997 189.26800000000003 223.42199999999997 187.062 224.70999999999998 185.54600000000002 C 247.301 158.97400000000002 270.37399999999997 130.42000000000002 297.47799999999995 108.31000000000002 C 298.35 107.599 299.427 108.672 298.71 109.543 z M 270.995 172.378 C 262.11400000000003 181.283 253.559 190.48999999999998 245.239 199.92 C 243.782 201.57199999999997 241.389 199.153 242.827 197.50699999999998 C 258.93399999999997 179.081 276.23 158.08999999999997 296.53499999999997 144.17499999999998 C 297.73299999999995 143.35399999999998 298.83799999999997 145.099 297.99499999999995 146.06799999999998 C 289.8 155.492 279.823 163.526 270.995 172.378 z M 260.613 221.46 C 259.435 222.65 257.623 220.83100000000002 258.778 219.624 C 268.53000000000003 209.43 277.8 196.95999999999998 289.24800000000005 188.662 C 290.13100000000003 188.02200000000002 291.345 189.28 290.74500000000006 190.15900000000002 C 282.766 201.833 270.537 211.437 260.613 221.46 z M 287.925 213.938 C 283.919 218.12099999999998 280.14 222.504 276.53000000000003 227.03199999999998 C 275.259 228.62499999999997 273.074 226.378 274.30100000000004 224.80299999999997 C 277.86300000000006 220.23099999999997 281.595 215.80199999999996 285.557 211.56999999999996 C 289.123 207.75999999999996 292.80100000000004 203.46799999999996 297.355 200.83499999999998 C 298.331 200.271 299.748 201.46999999999997 299.004 202.48399999999998 C 295.884 206.738 291.571 210.131 287.925 213.938 z M 297.126 216.884 C 296.34999999999997 219.40099999999998 294.022 221.36999999999998 292.294 223.284 C 290.191 225.612 288.089 227.94 285.986 230.268 C 284.55899999999997 231.848 282.23199999999997 229.507 283.65299999999996 227.934 C 285.645 225.72899999999998 287.63699999999994 223.523 289.62899999999996 221.31799999999998 C 291.366 219.39399999999998 293.14699999999993 216.72899999999998 295.57399999999996 215.69099999999997 C 296.357 215.356 297.426 215.91 297.126 216.884 z M 306.206 230.523 C 304.694 233.612 302.647 236.393 300.68 239.208 C 299.368 241.08599999999998 296.819 239.08599999999998 298.205 237.298 C 300.30199999999996 234.593 302.34299999999996 231.819 304.83799999999997 229.467 C 305.583 228.764 306.633 229.65 306.206 230.523 z M 373.906 134.94 C 379.22700000000003 129.146 380.706 117.798 374.443 112.116 C 371.437 109.389 365.92199999999997 108.584 362.255 110.515 C 362.014 110.528 361.764 110.589 361.502 110.768 C 354.617 115.463 349.824 125.259 355.28000000000003 132.875 C 359.564 138.855 368.673 140.638 373.906 134.94 z M 359.86 116.616 C 360.115 116.62 360.372 116.542 360.601 116.287 C 363.635 112.897 369.08299999999997 111.792 372.455 115.49900000000001 C 376.382 119.816 374.88599999999997 127.81300000000002 371.341 131.88 C 367.607 136.16299999999998 360.83500000000004 134.661 357.952 130.058 C 355.227 125.711 356.837 120.452 359.86 116.616 z M 370.668 158.179 C 367.342 155.943 360.129 155.53900000000002 358.945 160.494 C 358.87 160.81 358.98 161.149 359.18 161.404 C 357.759 163.963 357.702 167.30599999999998 359.228 169.873 C 361.928 174.417 367.827 174.41 371.389 170.87699999999998 C 375.057 167.235 375.151 161.193 370.668 158.179 z M 369.44 167.446 C 367.73 169.813 364.155 170.786 362.286 168.084 C 360.754 165.87 360.686 162.439 363.087 160.833 C 363.185 160.768 363.241 160.685 363.313 160.608 C 364.589 160.254 365.89099999999996 160.118 367.317 160.626 C 370.315 161.695 371.319 164.845 369.44 167.446 z M 358.35 197.827 C 358.343 197.843 358.351 197.85999999999999 358.346 197.876 C 358.288 197.886 358.246 197.841 358.186 197.863 C 355.631 198.792 354.916 201.602 355.90799999999996 204.004 C 357.263 207.28799999999998 361.234 207.62199999999999 363.89399999999995 205.697 C 366.48599999999993 203.821 368.84999999999997 198.675 366.30099999999993 195.903 C 364.073 193.479 359.453 195.048 358.35 197.827 z M 363.493 200.072 C 363.348 200.891 362.762 201.762 362.192 202.339 C 359.529 205.04 357.116 200.805 359.072 199.963 C 359.427 199.81 359.557 199.518 359.592 199.2 C 360.601 199.065 361.61899999999997 198.356 362.57099999999997 198.391 C 363.712 198.433 363.671 199.07 363.493 200.072 z M 291.509 368.848 C 291.35900000000004 351.894 291.15000000000003 334.938 292.523 318.026 C 292.66400000000004 316.286 295.249 316.238 295.26700000000005 318.026 C 295.4390000000001 334.967 295.29600000000005 351.90700000000004 295.5330000000001 368.848 C 295.78100000000006 386.523 297.28600000000006 404.927 295.1930000000001 422.5 C 294.9960000000001 424.16 292.7760000000001 424.175 292.5970000000001 422.5 C 290.722 404.901 291.665 386.551 291.509 368.848 z M 282.003 464.67 C 285.606 465.531 289.692 466.01300000000003 293.02799999999996 467.65500000000003 C 293.95599999999996 468.112 293.48499999999996 469.56600000000003 292.51399999999995 469.555 C 288.79099999999994 469.51300000000003 284.90799999999996 468.07 281.304 467.209 C 279.654 466.814 280.356 464.276 282.003 464.67 z M 282.045 476.455 C 285.182 477.478 289.42 478.724 291.529 481.41499999999996 C 292.011 482.03 291.58 482.92499999999995 290.753 482.748 C 287.53299999999996 482.056 284.549 479.854 281.404 478.779 C 279.945 478.281 280.563 475.972 282.045 476.455 z M 281.529 485.166 C 285.383 485.943 290.218 486.85 293.169 489.633 C 293.731 490.16299999999995 293.33599999999996 491.38899999999995 292.48699999999997 491.279 C 288.52899999999994 490.763 284.72799999999995 488.695 280.79999999999995 487.812 C 279.067 487.422 279.811 484.819 281.529 485.166 z M 281.65 492.093 C 285.544 492.315 290.56699999999995 492.615 293.59099999999995 495.344 C 294.061 495.768 293.69699999999995 496.642 293.066 496.61 C 291.29499999999996 496.519 289.66799999999995 495.904 287.962 495.47700000000003 C 285.881 494.956 283.794 494.71500000000003 281.65 494.689 C 279.971 494.668 279.99 491.998 281.65 492.093 z M 292.542 501.35 C 289.614 501.098 287.11499999999995 499.964 284.08599999999996 500.39500000000004 C 282.12499999999994 500.67400000000004 281.792 497.97100000000006 283.72599999999994 497.73600000000005 C 286.78099999999995 497.36500000000007 290.8929999999999 497.54200000000003 293.10599999999994 499.98800000000006 C 293.532 500.459 293.276 501.413 292.542 501.35 z M 284.24 506.286 C 282.871 506.158 282.863 504.00600000000003 284.24 504.135 C 286.439 504.34 288.83 504.669 290.38800000000003 506.361 C 290.74500000000006 506.748 290.52900000000005 507.563 289.91600000000005 507.5 C 287.971 507.3 286.21 506.47 284.24 506.286 z M 284.759 509.526 C 287.521 509.837 290.642 510.22200000000004 292.54900000000004 512.44 C 292.95000000000005 512.9060000000001 292.70700000000005 513.716 292.02400000000006 513.706 C 289.5330000000001 513.667 287.2320000000001 512.565 284.75900000000007 512.2710000000001 C 283.028 512.064 283.003 509.329 284.759 509.526 z M 280.818 522.154 C 287.311 526.068 294.078 526.866 300.988 529.4639999999999 C 301.634 529.707 301.816 530.8109999999999 300.988 530.9659999999999 C 293.57 532.3539999999999 285.561 528.3269999999999 279.564 524.2999999999998 C 278.248 523.415 279.435 521.32 280.818 522.154 z M 278.926 532.321 C 285.836 534.72 293.051 535.782 299.959 538.0930000000001 C 300.747 538.3570000000001 300.581 539.4610000000001 299.766 539.513 C 292.385 539.991 285.03000000000003 537.63 278.127 535.216 C 276.312 534.583 277.095 531.686 278.926 532.321 z M 276.993 542.768 C 283.331 543.3190000000001 290.808 542.9490000000001 296.865 545.005 C 297.608 545.257 297.807 546.584 296.865 546.721 C 290.541 547.646 283.336 545.999 276.993 545.4 C 275.321 545.242 275.302 542.621 276.993 542.768 z M 280.518 550.767 C 288.265 553.897 295.30699999999996 553.279 303.399 553.6110000000001 C 304.221 553.6450000000001 304.687 554.8600000000001 303.848 555.2700000000001 C 296.40500000000003 558.897 286.966 557.0470000000001 279.611 554.0570000000001 C 277.603 553.24 278.482 549.945 280.518 550.767 z M 304.153 567.164 C 305.113 567.318 304.916 568.654 304.153 568.9159999999999 C 297.46000000000004 571.218 288.961 569.435 282.30400000000003 567.684 C 280.38700000000006 567.18 281.206 564.207 283.122 564.717 C 290.184 566.594 297.089 566.027 304.153 567.164 z M 314.668 577.06 C 304.25 587.3779999999999 286.241 579.165 274.703 575.313 C 273.65999999999997 574.965 274.082 573.437 275.157 573.668 C 288.382 576.515 300.709 581.0600000000001 313.911 575.759 C 314.662 575.457 315.184 576.549 314.668 577.06 z M 306.232 589.3 C 297.26300000000003 591.232 287.033 587.579 278.99800000000005 583.789 C 277.2420000000001 582.961 278.77400000000006 580.402 280.51400000000007 581.1949999999999 C 288.9990000000001 585.064 297.34200000000004 585.372 306.23300000000006 587.3689999999999 C 307.182 587.582 307.191 589.093 306.232 589.3 z M 309.238 528.802 C 304.674 507.03200000000004 306.24399999999997 482.791 307.989 460.76 C 308.12399999999997 459.067 310.72499999999997 459.02799999999996 310.659 460.76 C 309.79699999999997 483.37399999999997 312.078 506.013 311.278 528.526 C 311.237 529.66 309.485 529.983 309.238 528.802 z M 210.066 241.654 C 210.887 242.726 209.317 244.117 208.26500000000001 243.45499999999998 C 182.20800000000003 227.03799999999998 169.33800000000002 190.90099999999998 166.663 161.78099999999998 C 166.49900000000002 159.998 169.19 160.07199999999997 169.407 161.78099999999998 C 171.477 178.05499999999998 176.61700000000002 193.67999999999998 184.591 208.02399999999997 C 191.592 220.619 201.404 230.353 210.066 241.654 z M 167.97 133.389 C 170.358 115.21000000000001 174.414 95.418 183.87199999999999 79.47800000000001 C 184.456 78.49400000000001 186.082 79.147 185.736 80.263 C 180.14399999999998 98.268 173.522 114.962 170.338 133.709 C 170.11 135.047 167.795 134.724 167.97 133.389 z M 190.124 69.867 C 191.95499999999998 66.887 193.728 62.458000000000006 196.753 60.515 C 197.37199999999999 60.117 198.397 60.627 198.315 61.411 C 197.937 65.016 194.861 68.53 193.006 71.551 C 191.882 73.38 188.997 71.702 190.124 69.867 z M 204.669 53.204 C 223.466 39.365 243.80800000000002 26.249000000000002 266.463 19.863999999999997 C 267.384 19.604999999999997 267.987 20.978999999999996 267.12 21.423 C 246.202 32.141999999999996 225.187 41.69799999999999 206.035 55.541 C 204.615 56.567 203.284 54.223 204.669 53.204 z M 289.919 16.775 C 295.816 16.238999999999997 301.98499999999996 16.4 307.429 18.935 C 308.30899999999997 19.343999999999998 307.881 20.831999999999997 306.933 20.766 C 301.18899999999996 20.366999999999997 295.694 19.529999999999998 289.919 20.113 C 287.787 20.327 287.792 16.969 289.919 16.775 z M 328.722 286.791 C 319.327 290.874 308.301 291.206 298.20399999999995 291.19 C 296.26199999999994 291.187 296.28 288.26 298.20399999999995 288.187 C 308.31299999999993 287.79900000000004 318.138 285.404 328.18899999999996 284.822 C 329.191 284.763 329.691 286.37 328.722 286.791 z M 354.26 276.255 C 352.728 278.021 350.613 279.04699999999997 348.59999999999997 280.175 C 346.40999999999997 281.402 344.22099999999995 282.628 342.032 283.855 C 340.11199999999997 284.93 338.394 281.982 340.31 280.909 C 342.5 279.683 344.689 278.456 346.879 277.229 C 348.89500000000004 276.099 350.887 274.815 353.196 274.42699999999996 C 354.275 274.246 355.005 275.396 354.26 276.255 z M 412.229 221.204 C 401.80699999999996 242.39700000000002 381.673 259.26 362.126 271.803 C 360.63 272.764 359.28 270.405 360.741 269.43399999999997 C 381.147 255.87499999999997 395.195 238.52399999999997 410.948 220.21599999999995 C 411.59 219.47 412.613 220.425 412.229 221.204 z M 423.442 193.261 C 423.548 195.867 422.07 198.587 421.188 200.994 C 420.56399999999996 202.697 417.81 201.921 418.46999999999997 200.245 C 419.436 197.792 420.17999999999995 194.621 422.04799999999994 192.685 C 422.558 192.157 423.414 192.576 423.442 193.261 z M 428.229 168.815 C 430.094 170.759 429.71799999999996 173.413 429.18399999999997 175.849 C 428.594 178.54299999999998 424.299 177.38899999999998 425.037 174.706 C 425.561 172.797 425.53299999999996 170.75699999999998 426.56899999999996 169.03 C 426.913 168.457 427.752 168.318 428.229 168.815 z M 427.348 124.84 C 429.999 135.405 430.434 146.297 430.635 157.143 C 430.673 159.156 427.597 159.139 427.521 157.143 C 427.112 146.44 425.834 135.778 425.673 125.068 C 425.658 124.102 427.115 123.909 427.348 124.84 z M 348.817 49.067 C 351.303 42.434 353.659 34.928 357.593 28.992 C 358.19300000000004 28.086000000000002 359.708 28.645 359.389 29.749000000000002 C 357.41200000000003 36.595 353.88800000000003 43.095 351.356 49.766000000000005 C 350.76 51.336 348.221 50.657 348.817 49.067 z M 356.74 44.863 C 358.718 40.552 360.356 35.363 363.152 31.523 C 363.751 30.7 365.11699999999996 31.169 364.846 32.237 C 363.657 36.925000000000004 360.657 41.58 358.565 45.93 C 357.972 47.163 356.18 46.085 356.74 44.863 z M 363.226 45.09 C 364.137 42.841 365.091 40.612 366.118 38.414 C 367.087 36.34 367.938 33.747 369.769 32.287 C 370.241 31.910999999999998 371.157 32.091 371.098 32.838 C 370.937 34.891 369.76800000000003 36.601 368.889 38.43 C 367.732 40.838 366.66 43.283 365.657 45.76 C 365.055 47.247 362.616 46.593 363.226 45.09 z M 369.127 47.734 C 370.015 44.879000000000005 371.479 39.964 374.358 38.546 C 374.972 38.244 375.547 38.738 375.448 39.384 C 375.21799999999996 40.875 374.22299999999996 41.976 373.505 43.277 C 372.612 44.894 371.915 46.59 371.344 48.345 C 370.888 49.747 368.686 49.153 369.127 47.734 z M 373.033 50.77 C 373.721 48.29600000000001 375.254 43.142 378.144 42.53 C 378.686 42.415 379.17900000000003 42.77 379.2 43.335 C 379.253 44.747 378.413 45.483000000000004 377.705 46.663000000000004 C 376.799 48.17100000000001 376.027 49.781000000000006 375.392 51.42100000000001 C 374.836 52.859 372.602 52.318 373.033 50.77 z M 377.768 53.03 C 378.88399999999996 51.033 379.924 47.775 382.11199999999997 46.793 C 382.69199999999995 46.532 383.24699999999996 46.847 383.31199999999995 47.481 C 383.556 49.873000000000005 381.24799999999993 52.407000000000004 380.07399999999996 54.377 C 379.193 55.855 376.929 54.532 377.768 53.03 z M 382.813 55.93 C 383.466 53.999 384.756 51.225 387.10499999999996 51.208 C 387.65599999999995 51.204 388.042 51.744 387.90999999999997 52.263999999999996 C 387.489 53.919999999999995 385.95399999999995 54.965999999999994 385.38699999999994 56.638999999999996 C 384.838 58.261 382.26 57.561 382.813 55.93 z M 387.717 59.407 C 388.686 58.559 389.416 57.321999999999996 390.222 56.299 C 390.566 55.862 391.219 56.167 391.36899999999997 56.602 C 392.04999999999995 58.584999999999994 391.186 60.032 389.73699999999997 61.425999999999995 C 388.403 62.708 386.341 60.612 387.717 59.407 z M 392.923 61.509 C 393.632 60.837 393.928 60.632 394.90500000000003 60.605 C 395.33500000000004 60.592999999999996 395.735 60.989 395.721 61.421 C 395.689 62.369 395.476 62.703 394.812 63.396 C 393.619 64.64 391.674 62.692 392.923 61.509 z M 401.657 76.325 C 400.387 74.441 403.448 72.665 404.69899999999996 74.547 C 407.50999999999993 78.776 410.912 84.158 411.006 89.39399999999999 C 411.027 90.55799999999999 409.52399999999994 90.827 408.933 89.95599999999999 C 407.486 87.81899999999999 406.688 85.35099999999998 405.565 83.03799999999998 C 404.431 80.7 403.108 78.476 401.657 76.325 z M 223 252.693 C 222.425 255.038 221.961 257.401 221.69 259.801 C 221.478 261.675 221.367 263.502 220.428 265.17699999999996 C 220.133 265.70399999999995 219.194 265.787 218.923 265.17699999999996 C 217.178 261.251 219.022 255.81899999999996 220.103 251.89499999999995 C 220.619 250.027 223.46 250.817 223 252.693 z M 227.539 260.075 C 227.325 262.688 227.61599999999999 266.114 226.02599999999998 268.334 C 225.61999999999998 268.902 224.66899999999998 269.059 224.29699999999997 268.334 C 223.02499999999998 265.856 223.76099999999997 262.747 223.94199999999998 260.075 C 224.097 257.767 227.727 257.776 227.539 260.075 z M 231.622 271.337 C 231.40900000000002 271.726 230.925 271.799 230.556 271.616 C 228.607 270.64799999999997 228.70100000000002 268.18 228.881 266.287 C 229.073 264.282 232.225 264.269 232.033 266.287 C 231.871 267.991 232.469 269.789 231.622 271.337 z M 237.012 271.069 C 237.19 272.358 237.325 273.25 236.74 274.413 C 236.508 274.873 235.94500000000002 274.82300000000004 235.604 274.559 C 234.675 273.838 234.40300000000002 272.995 234.044 271.887 C 233.416 269.946 236.747 269.153 237.012 271.069 z M 244.992 275.078 C 244.999 275.99399999999997 245.43599999999998 276.714 245.46099999999998 277.62399999999997 C 245.475 278.15399999999994 244.98199999999997 278.671 244.44099999999997 278.64399999999995 C 242.44599999999997 278.542 241.81999999999996 276.89699999999993 241.72899999999998 275.07899999999995 C 241.623 272.984 244.974 272.972 244.992 275.078 z M 256.48 281.835 C 256.95000000000005 283.089 257.20000000000005 283.668 256.66900000000004 284.87 C 256.492 285.27 255.94300000000004 285.413 255.55900000000003 285.322 C 254.30100000000002 285.023 253.95200000000003 284.236 253.29400000000004 283.178 C 251.985 281.071 255.573 279.418 256.48 281.835 z" stroke-linecap="round" />
</g>
</svg>